<svg xmlns="http://www.w3.org/2000/svg" xmlns:xlink="http://www.w3.org/1999/xlink" xmlns:lucid="lucid" width="1760" height="1360"><g transform="translate(0 0)" lucid:page-tab-id="HWEp-vi-RSFO"><path d="M0 0h1760v1360H0z" fill="#fff"/><path d="M740 541.5h360v242H740z" stroke="#333" stroke-width="2" fill="#fff"/><path d="M740 579.1h360M740 724.6h360" stroke="#333" stroke-width="2" fill="none"/><use xlink:href="#a" transform="matrix(1,0,0,1,748,549.5) translate(148.05 14.6)"/><use xlink:href="#b" transform="matrix(1,0,0,1,752,587.1) translate(106.1 25.39999999999999)"/><use xlink:href="#c" transform="matrix(1,0,0,1,752,587.1) translate(183 25.39999999999999)"/><use xlink:href="#d" transform="matrix(1,0,0,1,752,587.1) translate(98.575 46.99999999999999)"/><use xlink:href="#e" transform="matrix(1,0,0,1,752,587.1) translate(190.525 46.99999999999999)"/><use xlink:href="#f" transform="matrix(1,0,0,1,752,587.1) translate(81.94999999999999 68.6)"/><use xlink:href="#g" transform="matrix(1,0,0,1,752,587.1) translate(176.89999999999998 68.6)"/><use xlink:href="#h" transform="matrix(1,0,0,1,752,587.1) translate(75.62499999999999 90.20000000000002)"/><use xlink:href="#c" transform="matrix(1,0,0,1,752,587.1) translate(213.47500000000002 90.20000000000002)"/><use xlink:href="#i" transform="matrix(1,0,0,1,752,587.1) translate(122.575 111.80000000000001)"/><use xlink:href="#j" transform="matrix(1,0,0,1,752,587.1) translate(166.525 111.80000000000001)"/><path d="M160 589.27h360v285H160z" stroke="#333" stroke-width="2" fill="#fff"/><path d="M160 626.87h360m-360 188.7h360" stroke="#333" stroke-width="2" fill="none"/><use xlink:href="#k" transform="matrix(1,0,0,1,168,597.2662316597775) translate(86.12499999999999 14.6)"/><use xlink:href="#l" transform="matrix(1,0,0,1,168,597.2662316597775) translate(219.97500000000002 14.6)"/><use xlink:href="#m" transform="matrix(1,0,0,1,172,634.8662316597776) translate(124.07499999999999 25.300000000000004)"/><use xlink:href="#n" transform="matrix(1,0,0,1,172,634.8662316597776) translate(192.975 25.300000000000004)"/><use xlink:href="#o" transform="matrix(1,0,0,1,172,634.8662316597776) translate(86.1 46.900000000000006)"/><use xlink:href="#e" transform="matrix(1,0,0,1,172,634.8662316597776) translate(203 46.900000000000006)"/><use xlink:href="#p" transform="matrix(1,0,0,1,172,634.8662316597776) translate(77.12499999999999 68.50000000000001)"/><use xlink:href="#c" transform="matrix(1,0,0,1,172,634.8662316597776) translate(211.97500000000002 68.50000000000001)"/><use xlink:href="#q" transform="matrix(1,0,0,1,172,634.8662316597776) translate(112.575 90.10000000000002)"/><use xlink:href="#c" transform="matrix(1,0,0,1,172,634.8662316597776) translate(176.525 90.10000000000002)"/><use xlink:href="#r" transform="matrix(1,0,0,1,172,634.8662316597776) translate(117.075 111.70000000000002)"/><use xlink:href="#c" transform="matrix(1,0,0,1,172,634.8662316597776) translate(172.025 111.70000000000002)"/><use xlink:href="#s" transform="matrix(1,0,0,1,172,634.8662316597776) translate(118.125 133.3)"/><use xlink:href="#c" transform="matrix(1,0,0,1,172,634.8662316597776) translate(170.97500000000002 133.3)"/><use xlink:href="#t" transform="matrix(1,0,0,1,172,634.8662316597776) translate(114.55 154.9)"/><use xlink:href="#u" transform="matrix(1,0,0,1,172,634.8662316597776) translate(174.55 154.9)"/><path d="M180 960h360v242H180z" stroke="#333" stroke-width="2" fill="#fff"/><path d="M180 997.6h360m-360 145.5h360" stroke="#333" stroke-width="2" fill="none"/><use xlink:href="#v" transform="matrix(1,0,0,1,188,968) translate(143.075 14.6)"/><use xlink:href="#b" transform="matrix(1,0,0,1,192,1005.6) translate(106.1 25.39999999999999)"/><use xlink:href="#c" transform="matrix(1,0,0,1,192,1005.6) translate(183 25.39999999999999)"/><use xlink:href="#w" transform="matrix(1,0,0,1,192,1005.6) translate(96.55 46.99999999999999)"/><use xlink:href="#x" transform="matrix(1,0,0,1,192,1005.6) translate(219.45 46.99999999999999)"/><use xlink:href="#y" transform="matrix(1,0,0,1,192,1005.6) translate(106.55 68.6)"/><use xlink:href="#z" transform="matrix(1,0,0,1,192,1005.6) translate(209.45 68.6)"/><use xlink:href="#A" transform="matrix(1,0,0,1,192,1005.6) translate(112.55 90.20000000000002)"/><use xlink:href="#x" transform="matrix(1,0,0,1,192,1005.6) translate(203.45 90.20000000000002)"/><use xlink:href="#B" transform="matrix(1,0,0,1,192,1005.6) translate(103.5 111.80000000000001)"/><use xlink:href="#C" transform="matrix(1,0,0,1,192,1005.6) translate(212.5 111.80000000000001)"/><path d="M160 80h360v242H160z" stroke="#333" stroke-width="2" fill="#fff"/><path d="M160 117.6h360M160 263.1h360" stroke="#333" stroke-width="2" fill="none"/><use xlink:href="#D" transform="matrix(1,0,0,1,168,88) translate(126.6 14.6)"/><use xlink:href="#l" transform="matrix(1,0,0,1,168,88) translate(179.5 14.6)"/><use xlink:href="#E" transform="matrix(1,0,0,1,172,125.6) translate(118.575 25.39999999999999)"/><use xlink:href="#F" transform="matrix(1,0,0,1,172,125.6) translate(173.525 25.39999999999999)"/><use xlink:href="#G" transform="matrix(1,0,0,1,172,125.6) translate(97.625 46.99999999999999)"/><use xlink:href="#F" transform="matrix(1,0,0,1,172,125.6) translate(194.47500000000002 46.99999999999999)"/><use xlink:href="#H" transform="matrix(1,0,0,1,172,125.6) translate(81.94999999999999 68.6)"/><use xlink:href="#g" transform="matrix(1,0,0,1,172,125.6) translate(176.89999999999998 68.6)"/><use xlink:href="#I" transform="matrix(1,0,0,1,172,125.6) translate(81.175 90.20000000000002)"/><use xlink:href="#c" transform="matrix(1,0,0,1,172,125.6) translate(207.925 90.20000000000002)"/><use xlink:href="#J" transform="matrix(1,0,0,1,172,125.6) translate(70.72500000000001 111.80000000000001)"/><use xlink:href="#j" transform="matrix(1,0,0,1,172,125.6) translate(218.375 111.80000000000001)"/><path d="M680 100h360v199H680z" stroke="#333" stroke-width="2" fill="#fff"/><path d="M680 137.6h360M680 239.9h360" stroke="#333" stroke-width="2" fill="none"/><use xlink:href="#K" transform="matrix(1,0,0,1,687.9999999999993,108) translate(140.05 14.6)"/><use xlink:href="#b" transform="matrix(1,0,0,1,691.9999999999993,145.6) translate(107.6 25.5)"/><use xlink:href="#F" transform="matrix(1,0,0,1,691.9999999999993,145.6) translate(184.5 25.5)"/><use xlink:href="#L" transform="matrix(1,0,0,1,691.9999999999993,145.6) translate(64.65 47.1)"/><use xlink:href="#F" transform="matrix(1,0,0,1,691.9999999999993,145.6) translate(227.45 47.1)"/><use xlink:href="#M" transform="matrix(1,0,0,1,691.9999999999993,145.6) translate(49.150000000000006 68.7)"/><use xlink:href="#N" transform="matrix(1,0,0,1,691.9999999999993,145.6) translate(242.95 68.7)"/><path d="M700 1080h360v199H700z" stroke="#333" stroke-width="2" fill="#fff"/><path d="M700 1117.6h360m-360 102.3h360" stroke="#333" stroke-width="2" fill="none"/><use xlink:href="#O" transform="matrix(1,0,0,1,708,1088) translate(147.55 14.6)"/><use xlink:href="#P" transform="matrix(1,0,0,1,712,1125.6) translate(96.1 25.5)"/><use xlink:href="#c" transform="matrix(1,0,0,1,712,1125.6) translate(193 25.5)"/><use xlink:href="#Q" transform="matrix(1,0,0,1,712,1125.6) translate(100.14999999999999 47.1)"/><use xlink:href="#e" transform="matrix(1,0,0,1,712,1125.6) translate(188.95 47.1)"/><use xlink:href="#b" transform="matrix(1,0,0,1,712,1125.6) translate(106.1 68.7)"/><use xlink:href="#j" transform="matrix(1,0,0,1,712,1125.6) translate(183 68.7)"/><path d="M1260 60h360v415h-360z" stroke="#333" stroke-width="2" fill="#fff"/><path d="M1260 97.6h360m-360 318.3h360" stroke="#333" stroke-width="2" fill="none"/><use xlink:href="#R" transform="matrix(1,0,0,1,1268,68) translate(68.6 14.6)"/><use xlink:href="#S" transform="matrix(1,0,0,1,1268,68) translate(161.5 14.6)"/><use xlink:href="#T" transform="matrix(1,0,0,1,1272,105.6) translate(77.07499999999999 25.50000000000002)"/><use xlink:href="#z" transform="matrix(1,0,0,1,1272,105.6) translate(238.925 25.50000000000002)"/><use xlink:href="#U" transform="matrix(1,0,0,1,1272,105.6) translate(137.525 47.10000000000002)"/><use xlink:href="#x" transform="matrix(1,0,0,1,1272,105.6) translate(178.47500000000002 47.10000000000002)"/><use xlink:href="#V" transform="matrix(1,0,0,1,1272,105.6) translate(90.55 68.70000000000003)"/><use xlink:href="#z" transform="matrix(1,0,0,1,1272,105.6) translate(225.45 68.70000000000003)"/><use xlink:href="#W" transform="matrix(1,0,0,1,1272,105.6) translate(108.5 90.30000000000004)"/><use xlink:href="#z" transform="matrix(1,0,0,1,1272,105.6) translate(207.5 90.30000000000004)"/><use xlink:href="#X" transform="matrix(1,0,0,1,1272,105.6) translate(106.1 111.90000000000003)"/><use xlink:href="#c" transform="matrix(1,0,0,1,1272,105.6) translate(183 111.90000000000003)"/><use xlink:href="#Y" transform="matrix(1,0,0,1,1272,105.6) translate(66.52499999999999 133.50000000000003)"/><use xlink:href="#Z" transform="matrix(1,0,0,1,1272,105.6) translate(192.325 133.50000000000003)"/><use xlink:href="#aa" transform="matrix(1,0,0,1,1272,105.6) translate(69 155.10000000000002)"/><use xlink:href="#Z" transform="matrix(1,0,0,1,1272,105.6) translate(189.85000000000002 155.10000000000002)"/><use xlink:href="#ab" transform="matrix(1,0,0,1,1272,105.6) translate(139.575 176.70000000000002)"/><use xlink:href="#n" transform="matrix(1,0,0,1,1272,105.6) translate(177.475 176.70000000000002)"/><use xlink:href="#ac" transform="matrix(1,0,0,1,1272,105.6) translate(138.525 198.3)"/><use xlink:href="#n" transform="matrix(1,0,0,1,1272,105.6) translate(178.525 198.3)"/><use xlink:href="#ad" transform="matrix(1,0,0,1,1272,105.6) translate(106.6 219.9)"/><use xlink:href="#ae" transform="matrix(1,0,0,1,1272,105.6) translate(176.55 219.9)"/><use xlink:href="#af" transform="matrix(1,0,0,1,1272,105.6) translate(108.6 241.5)"/><use xlink:href="#e" transform="matrix(1,0,0,1,1272,105.6) translate(180.5 241.5)"/><use xlink:href="#ag" transform="matrix(1,0,0,1,1272,105.6) translate(107.575 263.09999999999997)"/><use xlink:href="#c" transform="matrix(1,0,0,1,1272,105.6) translate(181.525 263.09999999999997)"/><use xlink:href="#ah" transform="matrix(1,0,0,1,1272,105.6) translate(105.575 284.7)"/><use xlink:href="#j" transform="matrix(1,0,0,1,1272,105.6) translate(183.525 284.7)"/><path d="M1280 589.27h360v329h-360z" stroke="#333" stroke-width="2" fill="#fff"/><path d="M1280 626.87h360m-360 231.9h360" stroke="#333" stroke-width="2" fill="none"/><g><use xlink:href="#ai" transform="matrix(1,0,0,1,1288,597.2662316597775) translate(70.14999999999999 14.6)"/><use xlink:href="#S" transform="matrix(1,0,0,1,1288,597.2662316597775) translate(159.95 14.6)"/></g><g><use xlink:href="#T" transform="matrix(1,0,0,1,1292,634.8662316597776) translate(77.07499999999999 25.20000000000001)"/><use xlink:href="#z" transform="matrix(1,0,0,1,1292,634.8662316597776) translate(238.925 25.20000000000001)"/><use xlink:href="#U" transform="matrix(1,0,0,1,1292,634.8662316597776) translate(137.525 46.80000000000001)"/><use xlink:href="#x" transform="matrix(1,0,0,1,1292,634.8662316597776) translate(178.47500000000002 46.80000000000001)"/><use xlink:href="#b" transform="matrix(1,0,0,1,1292,634.8662316597776) translate(106.1 68.40000000000002)"/><use xlink:href="#c" transform="matrix(1,0,0,1,1292,634.8662316597776) translate(183 68.40000000000002)"/><use xlink:href="#Y" transform="matrix(1,0,0,1,1292,634.8662316597776) translate(66.52499999999999 90.00000000000003)"/><use xlink:href="#Z" transform="matrix(1,0,0,1,1292,634.8662316597776) translate(192.325 90.00000000000003)"/><use xlink:href="#aa" transform="matrix(1,0,0,1,1292,634.8662316597776) translate(69 111.60000000000002)"/><use xlink:href="#Z" transform="matrix(1,0,0,1,1292,634.8662316597776) translate(189.85000000000002 111.60000000000002)"/><use xlink:href="#ad" transform="matrix(1,0,0,1,1292,634.8662316597776) translate(106.6 133.20000000000002)"/><use xlink:href="#ae" transform="matrix(1,0,0,1,1292,634.8662316597776) translate(176.55 133.20000000000002)"/><use xlink:href="#af" transform="matrix(1,0,0,1,1292,634.8662316597776) translate(108.6 154.8)"/><use xlink:href="#e" transform="matrix(1,0,0,1,1292,634.8662316597776) translate(180.5 154.8)"/><use xlink:href="#ag" transform="matrix(1,0,0,1,1292,634.8662316597776) translate(107.575 176.4)"/><use xlink:href="#c" transform="matrix(1,0,0,1,1292,634.8662316597776) translate(181.525 176.4)"/><use xlink:href="#ah" transform="matrix(1,0,0,1,1292,634.8662316597776) translate(105.575 198)"/><use xlink:href="#j" transform="matrix(1,0,0,1,1292,634.8662316597776) translate(183.525 198)"/></g><path d="M920.5 540h-1v-9.02h1zm0-30.62h-1V333.32h1zm0-197.66h-1V300.5h1z" stroke="#333" stroke-width=".05" fill="#333"/><path d="M920.5 540.5h-1v-.5h1z" fill="#333"/><path d="M920.52 540.52h-1.04v-.56h1.04zm-1-.5v.46h.96V540z" stroke="#333" stroke-width=".05" fill="#333"/><path d="M920.5 300.5h-1v-.5h1z" fill="#333"/><path d="M920.52 300.54h-1.04v-.56h1.04zm-1-.52v.47h.96V300z" stroke="#333" stroke-width=".05" fill="#333"/><g><use xlink:href="#aj" transform="matrix(1,0,0,1,904,311.72367506391726) translate(0.004999999999999005 14.4)"/></g><g><use xlink:href="#ak" transform="matrix(1,0,0,1,915,509.3823358938633) translate(0.004999999999999893 14.4)"/></g><path d="M570.2 989.46l-28.7.02v-1l28.7-.02zM782.1 977l-.14 1.94-.46 1.9-.75 1.82-1.02 1.67-1.28 1.5-1.5 1.26-1.66 1.02-1.82.75-1.93.46-191.36.13v-1l191.23-.13 1.74-.4 1.66-.7 1.54-.95 1.37-1.17 1.18-1.36.94-1.54.7-1.67.4-1.75.15-1.82v-159.8h1zm0-181.44h-1V785h1z" stroke="#333" stroke-width=".05" fill="#333"/><path d="M782.1 785h-1v-.5h1z" fill="#333"/><path d="M782.14 785.04h-1.05v-.56h1.04zm-1-.5v.45h.95v-.48z" stroke="#333" stroke-width=".05" fill="#333"/><path d="M541.5 989.48h-.5v-1h.5z" fill="#333"/><path d="M541.54 989.5h-.56v-1.04h.56zm-.5-1v.96h.45v-.95z" stroke="#333" stroke-width=".05" fill="#333"/><g><use xlink:href="#ak" transform="matrix(1,0,0,1,776.6139354252333,795.5604801805616) translate(0.004999999999999893 14.4)"/></g><g><use xlink:href="#ak" transform="matrix(1,0,0,1,570.1947438724748,978.1808978849891) translate(0.004999999999999893 14.4)"/></g><path d="M840.5 1078.5h-1l.04-35h1zm80-158.73l-.15 1.94-.46 1.9-.76 1.83-1.03 1.67-1.26 1.5-1.5 1.26-1.66 1.03-1.82.74-1.92.46-57.92.15-1.82.14-1.75.4-1.67.7-1.54.95-1.37 1.17-1.17 1.37-.95 1.53-.7 1.67-.4 1.73-.1 79.98h-1l.1-80.1.46-1.9.76-1.83 1.03-1.67 1.26-1.5 1.5-1.26 1.66-1.03 1.82-.74 1.9-.46 1.94-.15 57.84-.15 1.73-.4 1.67-.7 1.54-.95 1.37-1.17 1.17-1.37.95-1.53.7-1.67.4-1.75.15-1.82v-60.15h1zm0-81.8h-1V785h1z" stroke="#333" stroke-width=".05" fill="#333"/><path d="M920.5 785h-1v-.5h1z" fill="#333"/><path d="M920.52 785.04h-1.04v-.56h1.04zm-1-.5v.45h.96v-.48z" stroke="#333" stroke-width=".05" fill="#333"/><path d="M840.5 1079h-1v-.5h1z" fill="#333"/><path d="M840.52 1079.03h-1.04v-.57h1.04zm-1-.52v.47h.96v-.46z" stroke="#333" stroke-width=".05" fill="#333"/><g><use xlink:href="#aj" transform="matrix(1,0,0,1,824,1021.9065367317021) translate(0.004999999999999005 14.4)"/></g><g><use xlink:href="#ak" transform="matrix(1,0,0,1,915,837.9817694067356) translate(0.004999999999999893 14.4)"/></g><path d="M1112.75 663h-11.25v-1h11.25zm133.26 0h-123.25v-1H1246zm32.5 0H1256v-1h22.5z" stroke="#333" stroke-width=".05" fill="#333"/><path d="M1101.5 663h-.5v-1h.5z" fill="#333"/><path d="M1101.54 663.02h-.57V662h.57zm-.5-1v.96h.45V662z" stroke="#333" stroke-width=".05" fill="#333"/><path d="M1279 663h-.5v-1h.5z" fill="#333"/><path d="M1279.03 663.02h-.57V662h.57zm-.52-1v.96h.47V662z" stroke="#333" stroke-width=".05" fill="#333"/><g><use xlink:href="#ak" transform="matrix(1,0,0,1,1112.7543249720432,651.7) translate(0.004999999999999893 14.4)"/></g><g><use xlink:href="#ak" transform="matrix(1,0,0,1,1246.0145729614107,651.7) translate(0.004999999999999893 14.4)"/></g><path d="M1123.63 562h-22.13v-1h22.13zm104.7-157.95l-38.15.08-1.73.42-1.67.7-1.54.93-1.37 1.18-1.17 1.37-.95 1.54-.7 1.66-.4 1.76-.15 1.8-.15 135.92-.46 1.93-.76 1.8-1.03 1.68-1.26 1.5-1.5 1.27-1.66 1.02-1.82.76-1.9.45-1.94.16h-34.4v-1H1168l1.82-.16 1.75-.42 1.67-.7 1.54-.93 1.37-1.18 1.17-1.38.95-1.53.7-1.66.4-1.74.15-135.83.15-1.94.46-1.9.76-1.82 1.03-1.66 1.26-1.5 1.5-1.27 1.66-1.02 1.82-.75 1.92-.47 38.28-.08zm30.17-.06l-20.16.03v-1l20.16-.04z" stroke="#333" stroke-width=".05" fill="#333"/><path d="M1101.5 562h-.5v-1h.5z" fill="#333"/><path d="M1101.54 562h-.57v-1.04h.57zm-.5-1v.96h.45V561z" stroke="#333" stroke-width=".05" fill="#333"/><path d="M1259 404h-.5v-1h.5z" fill="#333"/><path d="M1259.03 404h-.57v-1.04h.57zm-.52-1v.96h.47V403z" stroke="#333" stroke-width=".05" fill="#333"/><g><use xlink:href="#ak" transform="matrix(1,0,0,1,1123.6327125630119,550.6859291218003) translate(0.004999999999999893 14.4)"/></g><g><use xlink:href="#ak" transform="matrix(1,0,0,1,1228.3371931260865,392.68592912180014) translate(0.004999999999999893 14.4)"/></g><path d="M340.5 587.77h-1v-23.53h1zm0-45.13h-1V363h1zm0-201.25h-1v-17.9h1z" stroke="#333" stroke-width=".05" fill="#333"/><path d="M340.5 588.27h-1v-.52h1z" fill="#333"/><path d="M340.52 588.3h-1.04v-.57h1.04zm-1-.52v.46h.96v-.46z" stroke="#333" stroke-width=".05" fill="#333"/><path d="M340.5 323.5h-1v-.5h1z" fill="#333"/><path d="M340.52 323.54h-1.04v-.56h1.04zm-1-.52v.47h.96V323z" stroke="#333" stroke-width=".05" fill="#333"/><g><use xlink:href="#ak" transform="matrix(1,0,0,1,335,542.6379686905373) translate(0.004999999999999893 14.4)"/></g><g><use xlink:href="#ak" transform="matrix(1,0,0,1,335,341.3877982576146) translate(0.004999999999999893 14.4)"/></g><path d="M738.5 569.5v1l-26.38-.05v-1zM619.96 200.64l1.9.46 1.82.76 1.67 1.03 1.5 1.26 1.26 1.5 1.04 1.66.75 1.82.45 1.92.15 346.9.14 1.83.42 1.75.7 1.66.94 1.55 1.17 1.37 1.37 1.18 1.54.94 1.67.7 1.73.4 44.94.07v1l-45.06-.05-1.92-.47-1.82-.75-1.67-1.02-1.5-1.27-1.26-1.5-1.04-1.66-.75-1.8-.45-1.92-.15-1.94-.15-346.82-.4-1.73-.7-1.67-.95-1.54-1.17-1.37-1.37-1.17-1.54-.95-1.67-.7-1.75-.4-1.82-.15H550.4v-1h67.62zm-98.46.85v-1h18.9v1z" stroke="#333" stroke-width=".05" fill="#333"/><path d="M521.5 201.5h-.5v-1h.5z" fill="#333"/><path d="M521.54 201.53h-.56v-1.06h.56zm-.5-1v.94h.45v-.94z" stroke="#333" stroke-width=".05" fill="#333"/><path d="M739 570.5h-.5v-1h.5z" fill="#333"/><path d="M739.02 570.52h-.56v-1.05h.56zm-.5-1v.95h.46v-.95z" stroke="#333" stroke-width=".05" fill="#333"/><g><use xlink:href="#ak" transform="matrix(1,0,0,1,540.3984185093373,190.2) translate(0.004999999999999893 14.4)"/></g><g><use xlink:href="#al" transform="matrix(1,0,0,1,685.1207166858735,559.1932916842518) translate(0.005000000000000782 14.4)"/></g><path d="M1180 1020h360v199h-360z" stroke="#333" stroke-width="2" fill="#fff"/><path d="M1180 1057.6h360m-360 102.3h360" stroke="#333" stroke-width="2" fill="none"/><g><use xlink:href="#am" transform="matrix(1,0,0,1,1188,1028) translate(138.525 14.6)"/></g><g><use xlink:href="#an" transform="matrix(1,0,0,1,1192,1065.6) translate(106.1 25.5)"/><use xlink:href="#ao" transform="matrix(1,0,0,1,1192,1065.6) translate(183 25.5)"/><use xlink:href="#ap" transform="matrix(1,0,0,1,1192,1065.6) translate(102.55 47.1)"/><use xlink:href="#ao" transform="matrix(1,0,0,1,1192,1065.6) translate(186.55 47.1)"/><use xlink:href="#aq" transform="matrix(1,0,0,1,1192,1065.6) translate(146.55 68.7)"/><use xlink:href="#ar" transform="matrix(1,0,0,1,1192,1065.6) translate(170.5 68.7)"/></g><path d="M1360 1018.5V913.75a12 12 0 0 0-12-12H983.62a12 12 0 0 1-12-12v-88.87" stroke="#333" fill="none"/><path d="M1360.5 1019h-1v-.5h1z" stroke="#333" stroke-width=".05" fill="#333"/><path d="M971.62 786.12l4.63 14.26h-9.27z" stroke="#333" fill="#333"/><defs><path fill="#333" d="M127-220V0H93v-220H8v-28h204v28h-85" id="as"/><path fill="#333" d="M206 0h-36l-40-164L89 0H53L-1-190h32L70-26l43-164h34l41 164 42-164h31" id="at"/><path fill="#333" d="M100-194c63 0 86 42 84 106H49c0 40 14 67 53 68 26 1 43-12 49-29l28 8c-11 28-37 45-77 45C44 4 14-33 15-96c1-61 26-98 85-98zm52 81c6-60-76-77-97-28-3 7-6 17-6 28h103" id="au"/><path fill="#333" d="M59-47c-2 24 18 29 38 22v24C64 9 27 4 27-40v-127H5v-23h24l9-43h21v43h35v23H59v120" id="av"/><g id="a"><use transform="matrix(0.05,0,0,0.05,0,0)" xlink:href="#as"/><use transform="matrix(0.05,0,0,0.05,9.950000000000001,0)" xlink:href="#at"/><use transform="matrix(0.05,0,0,0.05,22.900000000000002,0)" xlink:href="#au"/><use transform="matrix(0.05,0,0,0.05,32.900000000000006,0)" xlink:href="#au"/><use transform="matrix(0.05,0,0,0.05,42.900000000000006,0)" xlink:href="#av"/></g><path fill="#333" d="M-5 72V49h209v23H-5" id="aw"/><path fill="#333" d="M24-231v-30h32v30H24zM24 0v-190h32V0H24" id="ax"/><path fill="#333" d="M85-194c31 0 48 13 60 33l-1-100h32l1 261h-30c-2-10 0-23-3-31C134-8 116 4 85 4 32 4 16-35 15-94c0-66 23-100 70-100zm9 24c-40 0-46 34-46 75 0 40 6 74 45 74 42 0 51-32 51-76 0-42-9-74-50-73" id="ay"/><path fill="#333" d="M33-154v-36h34v36H33zM33 0v-36h34V0H33" id="az"/><g id="b"><use transform="matrix(0.05,0,0,0.05,0,0)" xlink:href="#av"/><use transform="matrix(0.05,0,0,0.05,5,0)" xlink:href="#at"/><use transform="matrix(0.05,0,0,0.05,17.950000000000003,0)" xlink:href="#au"/><use transform="matrix(0.05,0,0,0.05,27.950000000000003,0)" xlink:href="#au"/><use transform="matrix(0.05,0,0,0.05,37.95,0)" xlink:href="#av"/><use transform="matrix(0.05,0,0,0.05,42.95,0)" xlink:href="#aw"/><use transform="matrix(0.05,0,0,0.05,52.95,0)" xlink:href="#ax"/><use transform="matrix(0.05,0,0,0.05,56.900000000000006,0)" xlink:href="#ay"/><use transform="matrix(0.05,0,0,0.05,66.9,0)" xlink:href="#az"/></g><path fill="#333" d="M185-189c-5-48-123-54-124 2 14 75 158 14 163 119 3 78-121 87-175 55-17-10-28-26-33-46l33-7c5 56 141 63 141-1 0-78-155-14-162-118-5-82 145-84 179-34 5 7 8 16 11 25" id="aA"/><path fill="#333" d="M114-163C36-179 61-72 57 0H25l-1-190h30c1 12-1 29 2 39 6-27 23-49 58-41v29" id="aB"/><path fill="#333" d="M117-194c89-4 53 116 60 194h-32v-121c0-31-8-49-39-48C34-167 62-67 57 0H25l-1-190h30c1 10-1 24 2 32 11-22 29-35 61-36" id="aC"/><path fill="#333" d="M177-190C167-65 218 103 67 71c-23-6-38-20-44-43l32-5c15 47 100 32 89-28v-30C133-14 115 1 83 1 29 1 15-40 15-95c0-56 16-97 71-98 29-1 48 16 59 35 1-10 0-23 2-32h30zM94-22c36 0 50-32 50-73 0-42-14-75-50-75-39 0-46 34-46 75s6 73 46 73" id="aD"/><g id="c"><use transform="matrix(0.05,0,0,0.05,0,0)" xlink:href="#aA"/><use transform="matrix(0.05,0,0,0.05,12,0)" xlink:href="#av"/><use transform="matrix(0.05,0,0,0.05,17,0)" xlink:href="#aB"/><use transform="matrix(0.05,0,0,0.05,22.95,0)" xlink:href="#ax"/><use transform="matrix(0.05,0,0,0.05,26.899999999999995,0)" xlink:href="#aC"/><use transform="matrix(0.05,0,0,0.05,36.9,0)" xlink:href="#aD"/></g><path fill="#333" d="M141 0L90-78 38 0H4l68-98-65-92h35l48 74 47-74h35l-64 92 68 98h-35" id="aE"/><g id="d"><use transform="matrix(0.05,0,0,0.05,0,0)" xlink:href="#av"/><use transform="matrix(0.05,0,0,0.05,5,0)" xlink:href="#at"/><use transform="matrix(0.05,0,0,0.05,17.950000000000003,0)" xlink:href="#au"/><use transform="matrix(0.05,0,0,0.05,27.950000000000003,0)" xlink:href="#au"/><use transform="matrix(0.05,0,0,0.05,37.95,0)" xlink:href="#av"/><use transform="matrix(0.05,0,0,0.05,42.95,0)" xlink:href="#aw"/><use transform="matrix(0.05,0,0,0.05,52.95,0)" xlink:href="#av"/><use transform="matrix(0.05,0,0,0.05,57.95,0)" xlink:href="#au"/><use transform="matrix(0.05,0,0,0.05,67.95,0)" xlink:href="#aE"/><use transform="matrix(0.05,0,0,0.05,76.95,0)" xlink:href="#av"/><use transform="matrix(0.05,0,0,0.05,81.95,0)" xlink:href="#az"/></g><g id="e"><use transform="matrix(0.05,0,0,0.05,0,0)" xlink:href="#aA"/><use transform="matrix(0.05,0,0,0.05,12,0)" xlink:href="#av"/><use transform="matrix(0.05,0,0,0.05,17,0)" xlink:href="#aB"/><use transform="matrix(0.05,0,0,0.05,22.95,0)" xlink:href="#ax"/><use transform="matrix(0.05,0,0,0.05,26.899999999999995,0)" xlink:href="#aC"/><use transform="matrix(0.05,0,0,0.05,36.9,0)" xlink:href="#aD"/></g><path fill="#333" d="M96-169c-40 0-48 33-48 73s9 75 48 75c24 0 41-14 43-38l32 2c-6 37-31 61-74 61-59 0-76-41-82-99-10-93 101-131 147-64 4 7 5 14 7 22l-32 3c-4-21-16-35-41-35" id="aF"/><path fill="#333" d="M141-36C126-15 110 5 73 4 37 3 15-17 15-53c-1-64 63-63 125-63 3-35-9-54-41-54-24 1-41 7-42 31l-33-3c5-37 33-52 76-52 45 0 72 20 72 64v82c-1 20 7 32 28 27v20c-31 9-61-2-59-35zM48-53c0 20 12 33 32 33 41-3 63-29 60-74-43 2-92-5-92 41" id="aG"/><g id="f"><use transform="matrix(0.05,0,0,0.05,0,0)" xlink:href="#aF"/><use transform="matrix(0.05,0,0,0.05,9,0)" xlink:href="#aB"/><use transform="matrix(0.05,0,0,0.05,14.949999999999998,0)" xlink:href="#au"/><use transform="matrix(0.05,0,0,0.05,24.95,0)" xlink:href="#aG"/><use transform="matrix(0.05,0,0,0.05,34.95,0)" xlink:href="#av"/><use transform="matrix(0.05,0,0,0.05,39.95,0)" xlink:href="#au"/><use transform="matrix(0.05,0,0,0.05,49.95,0)" xlink:href="#ay"/><use transform="matrix(0.05,0,0,0.05,59.95,0)" xlink:href="#aw"/><use transform="matrix(0.05,0,0,0.05,69.95,0)" xlink:href="#aG"/><use transform="matrix(0.05,0,0,0.05,79.95,0)" xlink:href="#av"/><use transform="matrix(0.05,0,0,0.05,84.95,0)" xlink:href="#az"/></g><path fill="#333" d="M30-248c118-7 216 8 213 122C240-48 200 0 122 0H30v-248zM63-27c89 8 146-16 146-99s-60-101-146-95v194" id="aH"/><path fill="#333" d="M210-169c-67 3-38 105-44 169h-31v-121c0-29-5-50-35-48C34-165 62-65 56 0H25l-1-190h30c1 10-1 24 2 32 10-44 99-50 107 0 11-21 27-35 58-36 85-2 47 119 55 194h-31v-121c0-29-5-49-35-48" id="aI"/><g id="g"><use transform="matrix(0.05,0,0,0.05,0,0)" xlink:href="#aH"/><use transform="matrix(0.05,0,0,0.05,12.950000000000001,0)" xlink:href="#aG"/><use transform="matrix(0.05,0,0,0.05,22.950000000000003,0)" xlink:href="#av"/><use transform="matrix(0.05,0,0,0.05,27.950000000000003,0)" xlink:href="#au"/><use transform="matrix(0.05,0,0,0.05,37.95,0)" xlink:href="#as"/><use transform="matrix(0.05,0,0,0.05,48.25000000000001,0)" xlink:href="#ax"/><use transform="matrix(0.05,0,0,0.05,52.20000000000002,0)" xlink:href="#aI"/><use transform="matrix(0.05,0,0,0.05,67.15,0)" xlink:href="#au"/></g><path fill="#333" d="M84 4C-5 8 30-112 23-190h32v120c0 31 7 50 39 49 72-2 45-101 50-169h31l1 190h-30c-1-10 1-25-2-33-11 22-28 36-60 37" id="aJ"/><path fill="#333" d="M106-169C34-169 62-67 57 0H25v-261h32l-1 103c12-21 28-36 61-36 89 0 53 116 60 194h-32v-121c2-32-8-49-39-48" id="aK"/><path fill="#333" d="M100-194c62-1 85 37 85 99 1 63-27 99-86 99S16-35 15-95c0-66 28-99 85-99zM99-20c44 1 53-31 53-75 0-43-8-75-51-75s-53 32-53 75 10 74 51 75" id="aL"/><g id="h"><use transform="matrix(0.05,0,0,0.05,0,0)" xlink:href="#av"/><use transform="matrix(0.05,0,0,0.05,5,0)" xlink:href="#at"/><use transform="matrix(0.05,0,0,0.05,17.950000000000003,0)" xlink:href="#au"/><use transform="matrix(0.05,0,0,0.05,27.950000000000003,0)" xlink:href="#au"/><use transform="matrix(0.05,0,0,0.05,37.95,0)" xlink:href="#av"/><use transform="matrix(0.05,0,0,0.05,42.95,0)" xlink:href="#aw"/><use transform="matrix(0.05,0,0,0.05,52.95,0)" xlink:href="#aG"/><use transform="matrix(0.05,0,0,0.05,62.95,0)" xlink:href="#aJ"/><use transform="matrix(0.05,0,0,0.05,72.95,0)" xlink:href="#av"/><use transform="matrix(0.05,0,0,0.05,77.95,0)" xlink:href="#aK"/><use transform="matrix(0.05,0,0,0.05,87.95,0)" xlink:href="#aL"/><use transform="matrix(0.05,0,0,0.05,97.95,0)" xlink:href="#aB"/><use transform="matrix(0.05,0,0,0.05,103.9,0)" xlink:href="#aw"/><use transform="matrix(0.05,0,0,0.05,113.9,0)" xlink:href="#ax"/><use transform="matrix(0.05,0,0,0.05,117.85000000000001,0)" xlink:href="#ay"/><use transform="matrix(0.05,0,0,0.05,127.85000000000001,0)" xlink:href="#az"/></g><path fill="#333" d="M24 0v-261h32V0H24" id="aM"/><g id="i"><use transform="matrix(0.05,0,0,0.05,0,0)" xlink:href="#aM"/><use transform="matrix(0.05,0,0,0.05,3.95,0)" xlink:href="#aG"/><use transform="matrix(0.05,0,0,0.05,13.949999999999998,0)" xlink:href="#aC"/><use transform="matrix(0.05,0,0,0.05,23.95,0)" xlink:href="#aD"/><use transform="matrix(0.05,0,0,0.05,33.95,0)" xlink:href="#az"/></g><g id="j"><use transform="matrix(0.05,0,0,0.05,0,0)" xlink:href="#aA"/><use transform="matrix(0.05,0,0,0.05,12,0)" xlink:href="#av"/><use transform="matrix(0.05,0,0,0.05,17,0)" xlink:href="#aB"/><use transform="matrix(0.05,0,0,0.05,22.95,0)" xlink:href="#ax"/><use transform="matrix(0.05,0,0,0.05,26.899999999999995,0)" xlink:href="#aC"/><use transform="matrix(0.05,0,0,0.05,36.9,0)" xlink:href="#aD"/></g><path fill="#333" d="M205 0l-28-72H64L36 0H1l101-248h38L239 0h-34zm-38-99l-47-123c-12 45-31 82-46 123h93" id="aN"/><g id="k"><use transform="matrix(0.05,0,0,0.05,0,0)" xlink:href="#aN"/><use transform="matrix(0.05,0,0,0.05,12,0)" xlink:href="#aF"/><use transform="matrix(0.05,0,0,0.05,21,0)" xlink:href="#aF"/><use transform="matrix(0.05,0,0,0.05,30,0)" xlink:href="#aL"/><use transform="matrix(0.05,0,0,0.05,40,0)" xlink:href="#aI"/><use transform="matrix(0.05,0,0,0.05,54.95,0)" xlink:href="#aI"/><use transform="matrix(0.05,0,0,0.05,69.9,0)" xlink:href="#aL"/><use transform="matrix(0.05,0,0,0.05,79.9,0)" xlink:href="#ay"/><use transform="matrix(0.05,0,0,0.05,89.9,0)" xlink:href="#aG"/><use transform="matrix(0.05,0,0,0.05,99.9,0)" xlink:href="#av"/><use transform="matrix(0.05,0,0,0.05,104.9,0)" xlink:href="#ax"/><use transform="matrix(0.05,0,0,0.05,108.85000000000001,0)" xlink:href="#aL"/><use transform="matrix(0.05,0,0,0.05,118.85000000000001,0)" xlink:href="#aC"/></g><path fill="#333" d="M232-93c-1 65-40 97-104 97C67 4 28-28 28-90v-158h33c8 89-33 224 67 224 102 0 64-133 71-224h33v155" id="aO"/><path fill="#333" d="M135-143c-3-34-86-38-87 0 15 53 115 12 119 90S17 21 10-45l28-5c4 36 97 45 98 0-10-56-113-15-118-90-4-57 82-63 122-42 12 7 21 19 24 35" id="aP"/><g id="l"><use transform="matrix(0.05,0,0,0.05,0,0)" xlink:href="#aO"/><use transform="matrix(0.05,0,0,0.05,12.950000000000001,0)" xlink:href="#aP"/><use transform="matrix(0.05,0,0,0.05,21.950000000000003,0)" xlink:href="#au"/><use transform="matrix(0.05,0,0,0.05,31.950000000000003,0)" xlink:href="#aB"/></g><g id="m"><use transform="matrix(0.05,0,0,0.05,0,0)" xlink:href="#aJ"/><use transform="matrix(0.05,0,0,0.05,10,0)" xlink:href="#aP"/><use transform="matrix(0.05,0,0,0.05,19,0)" xlink:href="#au"/><use transform="matrix(0.05,0,0,0.05,29,0)" xlink:href="#aB"/><use transform="matrix(0.05,0,0,0.05,34.95,0)" xlink:href="#aw"/><use transform="matrix(0.05,0,0,0.05,44.95,0)" xlink:href="#ax"/><use transform="matrix(0.05,0,0,0.05,48.900000000000006,0)" xlink:href="#ay"/><use transform="matrix(0.05,0,0,0.05,58.900000000000006,0)" xlink:href="#az"/></g><g id="n"><use transform="matrix(0.05,0,0,0.05,0,0)" xlink:href="#ax"/><use transform="matrix(0.05,0,0,0.05,3.95,0)" xlink:href="#aC"/><use transform="matrix(0.05,0,0,0.05,13.949999999999998,0)" xlink:href="#av"/></g><g id="o"><use transform="matrix(0.05,0,0,0.05,0,0)" xlink:href="#av"/><use transform="matrix(0.05,0,0,0.05,5,0)" xlink:href="#at"/><use transform="matrix(0.05,0,0,0.05,17.950000000000003,0)" xlink:href="#au"/><use transform="matrix(0.05,0,0,0.05,27.950000000000003,0)" xlink:href="#au"/><use transform="matrix(0.05,0,0,0.05,37.95,0)" xlink:href="#av"/><use transform="matrix(0.05,0,0,0.05,42.95,0)" xlink:href="#aw"/><use transform="matrix(0.05,0,0,0.05,52.95,0)" xlink:href="#aK"/><use transform="matrix(0.05,0,0,0.05,62.95,0)" xlink:href="#aG"/><use transform="matrix(0.05,0,0,0.05,72.95,0)" xlink:href="#aC"/><use transform="matrix(0.05,0,0,0.05,82.95,0)" xlink:href="#ay"/><use transform="matrix(0.05,0,0,0.05,92.95,0)" xlink:href="#aM"/><use transform="matrix(0.05,0,0,0.05,96.9,0)" xlink:href="#au"/><use transform="matrix(0.05,0,0,0.05,106.9,0)" xlink:href="#az"/></g><path fill="#333" d="M108 0H70L1-190h34L89-25l56-165h34" id="aQ"/><path fill="#333" d="M179-190L93 31C79 59 56 82 12 73V49c39 6 53-20 64-50L1-190h34L92-34l54-156h33" id="aR"/><g id="p"><use transform="matrix(0.05,0,0,0.05,0,0)" xlink:href="#aJ"/><use transform="matrix(0.05,0,0,0.05,10,0)" xlink:href="#aC"/><use transform="matrix(0.05,0,0,0.05,20,0)" xlink:href="#ax"/><use transform="matrix(0.05,0,0,0.05,23.95,0)" xlink:href="#aQ"/><use transform="matrix(0.05,0,0,0.05,32.95,0)" xlink:href="#au"/><use transform="matrix(0.05,0,0,0.05,42.95,0)" xlink:href="#aP"/><use transform="matrix(0.05,0,0,0.05,51.95,0)" xlink:href="#ax"/><use transform="matrix(0.05,0,0,0.05,55.900000000000006,0)" xlink:href="#av"/><use transform="matrix(0.05,0,0,0.05,60.900000000000006,0)" xlink:href="#aR"/><use transform="matrix(0.05,0,0,0.05,69.9,0)" xlink:href="#aw"/><use transform="matrix(0.05,0,0,0.05,79.9,0)" xlink:href="#aC"/><use transform="matrix(0.05,0,0,0.05,89.9,0)" xlink:href="#aG"/><use transform="matrix(0.05,0,0,0.05,99.9,0)" xlink:href="#aI"/><use transform="matrix(0.05,0,0,0.05,114.85000000000001,0)" xlink:href="#au"/><use transform="matrix(0.05,0,0,0.05,124.85000000000001,0)" xlink:href="#az"/></g><g id="q"><use transform="matrix(0.05,0,0,0.05,0,0)" xlink:href="#aF"/><use transform="matrix(0.05,0,0,0.05,9,0)" xlink:href="#aL"/><use transform="matrix(0.05,0,0,0.05,19,0)" xlink:href="#aJ"/><use transform="matrix(0.05,0,0,0.05,29,0)" xlink:href="#aB"/><use transform="matrix(0.05,0,0,0.05,34.95,0)" xlink:href="#aP"/><use transform="matrix(0.05,0,0,0.05,43.95,0)" xlink:href="#au"/><use transform="matrix(0.05,0,0,0.05,53.95,0)" xlink:href="#az"/></g><g id="r"><use transform="matrix(0.05,0,0,0.05,0,0)" xlink:href="#aC"/><use transform="matrix(0.05,0,0,0.05,10,0)" xlink:href="#aG"/><use transform="matrix(0.05,0,0,0.05,20,0)" xlink:href="#aI"/><use transform="matrix(0.05,0,0,0.05,34.95,0)" xlink:href="#au"/><use transform="matrix(0.05,0,0,0.05,44.95,0)" xlink:href="#az"/></g><g id="s"><use transform="matrix(0.05,0,0,0.05,0,0)" xlink:href="#au"/><use transform="matrix(0.05,0,0,0.05,10,0)" xlink:href="#aI"/><use transform="matrix(0.05,0,0,0.05,24.950000000000003,0)" xlink:href="#aG"/><use transform="matrix(0.05,0,0,0.05,34.95,0)" xlink:href="#ax"/><use transform="matrix(0.05,0,0,0.05,38.900000000000006,0)" xlink:href="#aM"/><use transform="matrix(0.05,0,0,0.05,42.85000000000001,0)" xlink:href="#az"/></g><path fill="#333" d="M115-194c55 1 70 41 70 98S169 2 115 4C84 4 66-9 55-30l1 105H24l-1-265h31l2 30c10-21 28-34 59-34zm-8 174c40 0 45-34 45-75s-6-73-45-74c-42 0-51 32-51 76 0 43 10 73 51 73" id="aS"/><g id="t"><use transform="matrix(0.05,0,0,0.05,0,0)" xlink:href="#aS"/><use transform="matrix(0.05,0,0,0.05,10,0)" xlink:href="#aK"/><use transform="matrix(0.05,0,0,0.05,20,0)" xlink:href="#aL"/><use transform="matrix(0.05,0,0,0.05,30,0)" xlink:href="#aC"/><use transform="matrix(0.05,0,0,0.05,40,0)" xlink:href="#au"/><use transform="matrix(0.05,0,0,0.05,50,0)" xlink:href="#az"/></g><g id="u"><use transform="matrix(0.05,0,0,0.05,0,0)" xlink:href="#aA"/><use transform="matrix(0.05,0,0,0.05,12,0)" xlink:href="#av"/><use transform="matrix(0.05,0,0,0.05,17,0)" xlink:href="#aB"/><use transform="matrix(0.05,0,0,0.05,22.95,0)" xlink:href="#ax"/><use transform="matrix(0.05,0,0,0.05,26.899999999999995,0)" xlink:href="#aC"/><use transform="matrix(0.05,0,0,0.05,36.9,0)" xlink:href="#aD"/></g><path fill="#333" d="M240 0l2-218c-23 76-54 145-80 218h-23L58-218 59 0H30v-248h44l77 211c21-75 51-140 76-211h43V0h-30" id="aT"/><g id="v"><use transform="matrix(0.05,0,0,0.05,0,0)" xlink:href="#aT"/><use transform="matrix(0.05,0,0,0.05,14.950000000000001,0)" xlink:href="#au"/><use transform="matrix(0.05,0,0,0.05,24.950000000000003,0)" xlink:href="#av"/><use transform="matrix(0.05,0,0,0.05,29.950000000000003,0)" xlink:href="#aB"/><use transform="matrix(0.05,0,0,0.05,35.900000000000006,0)" xlink:href="#ax"/><use transform="matrix(0.05,0,0,0.05,39.85000000000001,0)" xlink:href="#aF"/><use transform="matrix(0.05,0,0,0.05,48.85000000000001,0)" xlink:href="#aP"/></g><g id="w"><use transform="matrix(0.05,0,0,0.05,0,0)" xlink:href="#aB"/><use transform="matrix(0.05,0,0,0.05,5.95,0)" xlink:href="#au"/><use transform="matrix(0.05,0,0,0.05,15.949999999999998,0)" xlink:href="#av"/><use transform="matrix(0.05,0,0,0.05,20.95,0)" xlink:href="#at"/><use transform="matrix(0.05,0,0,0.05,33.9,0)" xlink:href="#au"/><use transform="matrix(0.05,0,0,0.05,43.9,0)" xlink:href="#au"/><use transform="matrix(0.05,0,0,0.05,53.900000000000006,0)" xlink:href="#av"/><use transform="matrix(0.05,0,0,0.05,58.900000000000006,0)" xlink:href="#aw"/><use transform="matrix(0.05,0,0,0.05,68.9,0)" xlink:href="#aF"/><use transform="matrix(0.05,0,0,0.05,77.9,0)" xlink:href="#aL"/><use transform="matrix(0.05,0,0,0.05,87.9,0)" xlink:href="#aJ"/><use transform="matrix(0.05,0,0,0.05,97.9,0)" xlink:href="#aC"/><use transform="matrix(0.05,0,0,0.05,107.9,0)" xlink:href="#av"/><use transform="matrix(0.05,0,0,0.05,112.9,0)" xlink:href="#az"/></g><path fill="#333" d="M33 0v-248h34V0H33" id="aU"/><g id="x"><use transform="matrix(0.05,0,0,0.05,0,0)" xlink:href="#aU"/><use transform="matrix(0.05,0,0,0.05,5,0)" xlink:href="#aC"/><use transform="matrix(0.05,0,0,0.05,15,0)" xlink:href="#av"/></g><g id="y"><use transform="matrix(0.05,0,0,0.05,0,0)" xlink:href="#aB"/><use transform="matrix(0.05,0,0,0.05,5.95,0)" xlink:href="#au"/><use transform="matrix(0.05,0,0,0.05,15.949999999999998,0)" xlink:href="#aS"/><use transform="matrix(0.05,0,0,0.05,25.950000000000003,0)" xlink:href="#aM"/><use transform="matrix(0.05,0,0,0.05,29.899999999999995,0)" xlink:href="#aR"/><use transform="matrix(0.05,0,0,0.05,38.9,0)" xlink:href="#aw"/><use transform="matrix(0.05,0,0,0.05,48.9,0)" xlink:href="#aF"/><use transform="matrix(0.05,0,0,0.05,57.900000000000006,0)" xlink:href="#aL"/><use transform="matrix(0.05,0,0,0.05,67.9,0)" xlink:href="#aJ"/><use transform="matrix(0.05,0,0,0.05,77.9,0)" xlink:href="#aC"/><use transform="matrix(0.05,0,0,0.05,87.9,0)" xlink:href="#av"/><use transform="matrix(0.05,0,0,0.05,92.9,0)" xlink:href="#az"/></g><g id="z"><use transform="matrix(0.05,0,0,0.05,0,0)" xlink:href="#aU"/><use transform="matrix(0.05,0,0,0.05,5,0)" xlink:href="#aC"/><use transform="matrix(0.05,0,0,0.05,15,0)" xlink:href="#av"/></g><path fill="#333" d="M143 0L79-87 56-68V0H24v-261h32v163l83-92h37l-77 82L181 0h-38" id="aV"/><g id="A"><use transform="matrix(0.05,0,0,0.05,0,0)" xlink:href="#aM"/><use transform="matrix(0.05,0,0,0.05,3.95,0)" xlink:href="#ax"/><use transform="matrix(0.05,0,0,0.05,7.9,0)" xlink:href="#aV"/><use transform="matrix(0.05,0,0,0.05,16.9,0)" xlink:href="#au"/><use transform="matrix(0.05,0,0,0.05,26.899999999999995,0)" xlink:href="#aw"/><use transform="matrix(0.05,0,0,0.05,36.9,0)" xlink:href="#aF"/><use transform="matrix(0.05,0,0,0.05,45.9,0)" xlink:href="#aL"/><use transform="matrix(0.05,0,0,0.05,55.900000000000006,0)" xlink:href="#aJ"/><use transform="matrix(0.05,0,0,0.05,65.9,0)" xlink:href="#aC"/><use transform="matrix(0.05,0,0,0.05,75.9,0)" xlink:href="#av"/><use transform="matrix(0.05,0,0,0.05,80.9,0)" xlink:href="#az"/></g><path fill="#333" d="M145-31C134-9 116 4 85 4 32 4 16-35 15-94c0-59 17-99 70-100 32-1 48 14 60 33 0-11-1-24 2-32h30l-1 268h-32zM93-21c41 0 51-33 51-76s-8-73-50-73c-40 0-46 35-46 75s5 74 45 74" id="aW"/><g id="B"><use transform="matrix(0.05,0,0,0.05,0,0)" xlink:href="#aW"/><use transform="matrix(0.05,0,0,0.05,10,0)" xlink:href="#aJ"/><use transform="matrix(0.05,0,0,0.05,20,0)" xlink:href="#aL"/><use transform="matrix(0.05,0,0,0.05,30,0)" xlink:href="#av"/><use transform="matrix(0.05,0,0,0.05,35,0)" xlink:href="#au"/><use transform="matrix(0.05,0,0,0.05,45,0)" xlink:href="#aw"/><use transform="matrix(0.05,0,0,0.05,55,0)" xlink:href="#aF"/><use transform="matrix(0.05,0,0,0.05,64,0)" xlink:href="#aL"/><use transform="matrix(0.05,0,0,0.05,74,0)" xlink:href="#aJ"/><use transform="matrix(0.05,0,0,0.05,84,0)" xlink:href="#aC"/><use transform="matrix(0.05,0,0,0.05,94,0)" xlink:href="#av"/><use transform="matrix(0.05,0,0,0.05,99,0)" xlink:href="#az"/></g><g id="C"><use transform="matrix(0.05,0,0,0.05,0,0)" xlink:href="#aU"/><use transform="matrix(0.05,0,0,0.05,5,0)" xlink:href="#aC"/><use transform="matrix(0.05,0,0,0.05,15,0)" xlink:href="#av"/></g><g id="D"><use transform="matrix(0.05,0,0,0.05,0,0)" xlink:href="#as"/><use transform="matrix(0.05,0,0,0.05,9.950000000000001,0)" xlink:href="#at"/><use transform="matrix(0.05,0,0,0.05,22.900000000000002,0)" xlink:href="#au"/><use transform="matrix(0.05,0,0,0.05,32.900000000000006,0)" xlink:href="#au"/><use transform="matrix(0.05,0,0,0.05,42.900000000000006,0)" xlink:href="#av"/></g><g id="E"><use transform="matrix(0.05,0,0,0.05,0,0)" xlink:href="#aC"/><use transform="matrix(0.05,0,0,0.05,10,0)" xlink:href="#aG"/><use transform="matrix(0.05,0,0,0.05,20,0)" xlink:href="#aI"/><use transform="matrix(0.05,0,0,0.05,34.95,0)" xlink:href="#au"/><use transform="matrix(0.05,0,0,0.05,44.95,0)" xlink:href="#az"/></g><g id="F"><use transform="matrix(0.05,0,0,0.05,0,0)" xlink:href="#aP"/><use transform="matrix(0.05,0,0,0.05,9,0)" xlink:href="#av"/><use transform="matrix(0.05,0,0,0.05,14,0)" xlink:href="#aB"/><use transform="matrix(0.05,0,0,0.05,19.95,0)" xlink:href="#ax"/><use transform="matrix(0.05,0,0,0.05,23.9,0)" xlink:href="#aC"/><use transform="matrix(0.05,0,0,0.05,33.9,0)" xlink:href="#aD"/></g><g id="G"><use transform="matrix(0.05,0,0,0.05,0,0)" xlink:href="#ay"/><use transform="matrix(0.05,0,0,0.05,10,0)" xlink:href="#au"/><use transform="matrix(0.05,0,0,0.05,20,0)" xlink:href="#aP"/><use transform="matrix(0.05,0,0,0.05,29,0)" xlink:href="#aF"/><use transform="matrix(0.05,0,0,0.05,38,0)" xlink:href="#aB"/><use transform="matrix(0.05,0,0,0.05,43.95,0)" xlink:href="#ax"/><use transform="matrix(0.05,0,0,0.05,47.900000000000006,0)" xlink:href="#aS"/><use transform="matrix(0.05,0,0,0.05,57.900000000000006,0)" xlink:href="#av"/><use transform="matrix(0.05,0,0,0.05,62.900000000000006,0)" xlink:href="#ax"/><use transform="matrix(0.05,0,0,0.05,66.85000000000001,0)" xlink:href="#aL"/><use transform="matrix(0.05,0,0,0.05,76.85000000000001,0)" xlink:href="#aC"/><use transform="matrix(0.05,0,0,0.05,86.85000000000001,0)" xlink:href="#az"/></g><g id="H"><use transform="matrix(0.05,0,0,0.05,0,0)" xlink:href="#aF"/><use transform="matrix(0.05,0,0,0.05,9,0)" xlink:href="#aB"/><use transform="matrix(0.05,0,0,0.05,14.949999999999998,0)" xlink:href="#au"/><use transform="matrix(0.05,0,0,0.05,24.95,0)" xlink:href="#aG"/><use transform="matrix(0.05,0,0,0.05,34.95,0)" xlink:href="#av"/><use transform="matrix(0.05,0,0,0.05,39.95,0)" xlink:href="#au"/><use transform="matrix(0.05,0,0,0.05,49.95,0)" xlink:href="#ay"/><use transform="matrix(0.05,0,0,0.05,59.95,0)" xlink:href="#aw"/><use transform="matrix(0.05,0,0,0.05,69.95,0)" xlink:href="#aG"/><use transform="matrix(0.05,0,0,0.05,79.95,0)" xlink:href="#av"/><use transform="matrix(0.05,0,0,0.05,84.95,0)" xlink:href="#az"/></g><g id="I"><use transform="matrix(0.05,0,0,0.05,0,0)" xlink:href="#av"/><use transform="matrix(0.05,0,0,0.05,5,0)" xlink:href="#at"/><use transform="matrix(0.05,0,0,0.05,17.950000000000003,0)" xlink:href="#ax"/><use transform="matrix(0.05,0,0,0.05,21.900000000000002,0)" xlink:href="#av"/><use transform="matrix(0.05,0,0,0.05,26.900000000000002,0)" xlink:href="#av"/><use transform="matrix(0.05,0,0,0.05,31.900000000000002,0)" xlink:href="#au"/><use transform="matrix(0.05,0,0,0.05,41.900000000000006,0)" xlink:href="#aB"/><use transform="matrix(0.05,0,0,0.05,47.85000000000001,0)" xlink:href="#aw"/><use transform="matrix(0.05,0,0,0.05,57.85,0)" xlink:href="#aJ"/><use transform="matrix(0.05,0,0,0.05,67.85000000000001,0)" xlink:href="#aP"/><use transform="matrix(0.05,0,0,0.05,76.85000000000001,0)" xlink:href="#au"/><use transform="matrix(0.05,0,0,0.05,86.85000000000001,0)" xlink:href="#aB"/><use transform="matrix(0.05,0,0,0.05,92.80000000000001,0)" xlink:href="#aw"/><use transform="matrix(0.05,0,0,0.05,102.80000000000001,0)" xlink:href="#ax"/><use transform="matrix(0.05,0,0,0.05,106.75,0)" xlink:href="#ay"/><use transform="matrix(0.05,0,0,0.05,116.75,0)" xlink:href="#az"/></g><path fill="#333" d="M101-234c-31-9-42 10-38 44h38v23H63V0H32v-167H5v-23h27c-7-52 17-82 69-68v24" id="aX"/><g id="J"><use transform="matrix(0.05,0,0,0.05,0,0)" xlink:href="#aS"/><use transform="matrix(0.05,0,0,0.05,10,0)" xlink:href="#aB"/><use transform="matrix(0.05,0,0,0.05,15.949999999999998,0)" xlink:href="#aL"/><use transform="matrix(0.05,0,0,0.05,25.950000000000003,0)" xlink:href="#aX"/><use transform="matrix(0.05,0,0,0.05,30.950000000000003,0)" xlink:href="#ax"/><use transform="matrix(0.05,0,0,0.05,34.9,0)" xlink:href="#aM"/><use transform="matrix(0.05,0,0,0.05,38.85,0)" xlink:href="#au"/><use transform="matrix(0.05,0,0,0.05,48.85,0)" xlink:href="#aw"/><use transform="matrix(0.05,0,0,0.05,58.85,0)" xlink:href="#ax"/><use transform="matrix(0.05,0,0,0.05,62.800000000000004,0)" xlink:href="#aI"/><use transform="matrix(0.05,0,0,0.05,77.75,0)" xlink:href="#aG"/><use transform="matrix(0.05,0,0,0.05,87.75,0)" xlink:href="#aD"/><use transform="matrix(0.05,0,0,0.05,97.75,0)" xlink:href="#au"/><use transform="matrix(0.05,0,0,0.05,107.75,0)" xlink:href="#aw"/><use transform="matrix(0.05,0,0,0.05,117.75,0)" xlink:href="#aJ"/><use transform="matrix(0.05,0,0,0.05,127.75,0)" xlink:href="#aB"/><use transform="matrix(0.05,0,0,0.05,133.7,0)" xlink:href="#aM"/><use transform="matrix(0.05,0,0,0.05,137.64999999999998,0)" xlink:href="#az"/></g><g id="K"><use transform="matrix(0.05,0,0,0.05,0,0)" xlink:href="#aT"/><use transform="matrix(0.05,0,0,0.05,14.950000000000001,0)" xlink:href="#au"/><use transform="matrix(0.05,0,0,0.05,24.950000000000003,0)" xlink:href="#aC"/><use transform="matrix(0.05,0,0,0.05,34.95,0)" xlink:href="#av"/><use transform="matrix(0.05,0,0,0.05,39.95,0)" xlink:href="#ax"/><use transform="matrix(0.05,0,0,0.05,43.900000000000006,0)" xlink:href="#aL"/><use transform="matrix(0.05,0,0,0.05,53.900000000000006,0)" xlink:href="#aC"/></g><g id="L"><use transform="matrix(0.05,0,0,0.05,0,0)" xlink:href="#aI"/><use transform="matrix(0.05,0,0,0.05,14.950000000000001,0)" xlink:href="#au"/><use transform="matrix(0.05,0,0,0.05,24.950000000000003,0)" xlink:href="#aC"/><use transform="matrix(0.05,0,0,0.05,34.95,0)" xlink:href="#av"/><use transform="matrix(0.05,0,0,0.05,39.95,0)" xlink:href="#ax"/><use transform="matrix(0.05,0,0,0.05,43.900000000000006,0)" xlink:href="#aL"/><use transform="matrix(0.05,0,0,0.05,53.900000000000006,0)" xlink:href="#aC"/><use transform="matrix(0.05,0,0,0.05,63.900000000000006,0)" xlink:href="#au"/><use transform="matrix(0.05,0,0,0.05,73.9,0)" xlink:href="#ay"/><use transform="matrix(0.05,0,0,0.05,83.9,0)" xlink:href="#aw"/><use transform="matrix(0.05,0,0,0.05,93.9,0)" xlink:href="#aJ"/><use transform="matrix(0.05,0,0,0.05,103.9,0)" xlink:href="#aP"/><use transform="matrix(0.05,0,0,0.05,112.9,0)" xlink:href="#au"/><use transform="matrix(0.05,0,0,0.05,122.9,0)" xlink:href="#aB"/><use transform="matrix(0.05,0,0,0.05,128.85,0)" xlink:href="#aw"/><use transform="matrix(0.05,0,0,0.05,138.85,0)" xlink:href="#ax"/><use transform="matrix(0.05,0,0,0.05,142.79999999999998,0)" xlink:href="#ay"/><use transform="matrix(0.05,0,0,0.05,152.79999999999998,0)" xlink:href="#az"/></g><g id="M"><use transform="matrix(0.05,0,0,0.05,0,0)" xlink:href="#aI"/><use transform="matrix(0.05,0,0,0.05,14.950000000000001,0)" xlink:href="#au"/><use transform="matrix(0.05,0,0,0.05,24.950000000000003,0)" xlink:href="#aC"/><use transform="matrix(0.05,0,0,0.05,34.95,0)" xlink:href="#av"/><use transform="matrix(0.05,0,0,0.05,39.95,0)" xlink:href="#ax"/><use transform="matrix(0.05,0,0,0.05,43.900000000000006,0)" xlink:href="#aL"/><use transform="matrix(0.05,0,0,0.05,53.900000000000006,0)" xlink:href="#aC"/><use transform="matrix(0.05,0,0,0.05,63.900000000000006,0)" xlink:href="#au"/><use transform="matrix(0.05,0,0,0.05,73.9,0)" xlink:href="#ay"/><use transform="matrix(0.05,0,0,0.05,83.9,0)" xlink:href="#aw"/><use transform="matrix(0.05,0,0,0.05,93.9,0)" xlink:href="#aJ"/><use transform="matrix(0.05,0,0,0.05,103.9,0)" xlink:href="#aP"/><use transform="matrix(0.05,0,0,0.05,112.9,0)" xlink:href="#au"/><use transform="matrix(0.05,0,0,0.05,122.9,0)" xlink:href="#aB"/><use transform="matrix(0.05,0,0,0.05,128.85,0)" xlink:href="#aw"/><use transform="matrix(0.05,0,0,0.05,138.85,0)" xlink:href="#aC"/><use transform="matrix(0.05,0,0,0.05,148.85,0)" xlink:href="#aG"/><use transform="matrix(0.05,0,0,0.05,158.85,0)" xlink:href="#aI"/><use transform="matrix(0.05,0,0,0.05,173.79999999999998,0)" xlink:href="#au"/><use transform="matrix(0.05,0,0,0.05,183.79999999999998,0)" xlink:href="#az"/></g><g id="N"><use transform="matrix(0.05,0,0,0.05,0,0)" xlink:href="#aP"/><use transform="matrix(0.05,0,0,0.05,9,0)" xlink:href="#av"/><use transform="matrix(0.05,0,0,0.05,14,0)" xlink:href="#aB"/><use transform="matrix(0.05,0,0,0.05,19.95,0)" xlink:href="#ax"/><use transform="matrix(0.05,0,0,0.05,23.9,0)" xlink:href="#aC"/><use transform="matrix(0.05,0,0,0.05,33.9,0)" xlink:href="#aD"/></g><g id="O"><use transform="matrix(0.05,0,0,0.05,0,0)" xlink:href="#aT"/><use transform="matrix(0.05,0,0,0.05,14.950000000000001,0)" xlink:href="#au"/><use transform="matrix(0.05,0,0,0.05,24.950000000000003,0)" xlink:href="#ay"/><use transform="matrix(0.05,0,0,0.05,34.95,0)" xlink:href="#ax"/><use transform="matrix(0.05,0,0,0.05,38.900000000000006,0)" xlink:href="#aG"/></g><g id="P"><use transform="matrix(0.05,0,0,0.05,0,0)" xlink:href="#aI"/><use transform="matrix(0.05,0,0,0.05,14.950000000000001,0)" xlink:href="#au"/><use transform="matrix(0.05,0,0,0.05,24.950000000000003,0)" xlink:href="#ay"/><use transform="matrix(0.05,0,0,0.05,34.95,0)" xlink:href="#ax"/><use transform="matrix(0.05,0,0,0.05,38.900000000000006,0)" xlink:href="#aG"/><use transform="matrix(0.05,0,0,0.05,48.900000000000006,0)" xlink:href="#aw"/><use transform="matrix(0.05,0,0,0.05,58.900000000000006,0)" xlink:href="#aV"/><use transform="matrix(0.05,0,0,0.05,67.9,0)" xlink:href="#au"/><use transform="matrix(0.05,0,0,0.05,77.9,0)" xlink:href="#aR"/><use transform="matrix(0.05,0,0,0.05,86.9,0)" xlink:href="#az"/></g><g id="Q"><use transform="matrix(0.05,0,0,0.05,0,0)" xlink:href="#aI"/><use transform="matrix(0.05,0,0,0.05,14.950000000000001,0)" xlink:href="#au"/><use transform="matrix(0.05,0,0,0.05,24.950000000000003,0)" xlink:href="#ay"/><use transform="matrix(0.05,0,0,0.05,34.95,0)" xlink:href="#ax"/><use transform="matrix(0.05,0,0,0.05,38.900000000000006,0)" xlink:href="#aG"/><use transform="matrix(0.05,0,0,0.05,48.900000000000006,0)" xlink:href="#aw"/><use transform="matrix(0.05,0,0,0.05,58.900000000000006,0)" xlink:href="#aJ"/><use transform="matrix(0.05,0,0,0.05,68.9,0)" xlink:href="#aB"/><use transform="matrix(0.05,0,0,0.05,74.85000000000001,0)" xlink:href="#aM"/><use transform="matrix(0.05,0,0,0.05,78.80000000000001,0)" xlink:href="#az"/></g><path fill="#333" d="M30-248c87 1 191-15 191 75 0 78-77 80-158 76V0H30v-248zm33 125c57 0 124 11 124-50 0-59-68-47-124-48v98" id="aY"/><g id="R"><use transform="matrix(0.05,0,0,0.05,0,0)" xlink:href="#aY"/><use transform="matrix(0.05,0,0,0.05,12,0)" xlink:href="#au"/><use transform="matrix(0.05,0,0,0.05,22,0)" xlink:href="#aB"/><use transform="matrix(0.05,0,0,0.05,27.950000000000003,0)" xlink:href="#aI"/><use transform="matrix(0.05,0,0,0.05,42.9,0)" xlink:href="#aG"/><use transform="matrix(0.05,0,0,0.05,52.900000000000006,0)" xlink:href="#aC"/><use transform="matrix(0.05,0,0,0.05,62.900000000000006,0)" xlink:href="#au"/><use transform="matrix(0.05,0,0,0.05,72.9,0)" xlink:href="#aC"/><use transform="matrix(0.05,0,0,0.05,82.9,0)" xlink:href="#av"/></g><g id="S"><use transform="matrix(0.05,0,0,0.05,0,0)" xlink:href="#aN"/><use transform="matrix(0.05,0,0,0.05,12,0)" xlink:href="#aF"/><use transform="matrix(0.05,0,0,0.05,21,0)" xlink:href="#aF"/><use transform="matrix(0.05,0,0,0.05,30,0)" xlink:href="#aL"/><use transform="matrix(0.05,0,0,0.05,40,0)" xlink:href="#aI"/><use transform="matrix(0.05,0,0,0.05,54.95,0)" xlink:href="#aL"/><use transform="matrix(0.05,0,0,0.05,64.95,0)" xlink:href="#ay"/><use transform="matrix(0.05,0,0,0.05,74.95,0)" xlink:href="#aG"/><use transform="matrix(0.05,0,0,0.05,84.95,0)" xlink:href="#av"/><use transform="matrix(0.05,0,0,0.05,89.95,0)" xlink:href="#ax"/><use transform="matrix(0.05,0,0,0.05,93.9,0)" xlink:href="#aL"/><use transform="matrix(0.05,0,0,0.05,103.9,0)" xlink:href="#aC"/></g><g id="T"><use transform="matrix(0.05,0,0,0.05,0,0)" xlink:href="#aG"/><use transform="matrix(0.05,0,0,0.05,10,0)" xlink:href="#aF"/><use transform="matrix(0.05,0,0,0.05,19,0)" xlink:href="#aF"/><use transform="matrix(0.05,0,0,0.05,28,0)" xlink:href="#aL"/><use transform="matrix(0.05,0,0,0.05,38,0)" xlink:href="#aI"/><use transform="matrix(0.05,0,0,0.05,52.95,0)" xlink:href="#aI"/><use transform="matrix(0.05,0,0,0.05,67.9,0)" xlink:href="#aL"/><use transform="matrix(0.05,0,0,0.05,77.9,0)" xlink:href="#ay"/><use transform="matrix(0.05,0,0,0.05,87.9,0)" xlink:href="#aG"/><use transform="matrix(0.05,0,0,0.05,97.9,0)" xlink:href="#av"/><use transform="matrix(0.05,0,0,0.05,102.9,0)" xlink:href="#ax"/><use transform="matrix(0.05,0,0,0.05,106.85000000000001,0)" xlink:href="#aL"/><use transform="matrix(0.05,0,0,0.05,116.85000000000001,0)" xlink:href="#aC"/><use transform="matrix(0.05,0,0,0.05,126.85000000000001,0)" xlink:href="#aw"/><use transform="matrix(0.05,0,0,0.05,136.85000000000002,0)" xlink:href="#aU"/><use transform="matrix(0.05,0,0,0.05,141.85000000000002,0)" xlink:href="#ay"/><use transform="matrix(0.05,0,0,0.05,151.85000000000002,0)" xlink:href="#az"/></g><g id="U"><use transform="matrix(0.05,0,0,0.05,0,0)" xlink:href="#aB"/><use transform="matrix(0.05,0,0,0.05,5.95,0)" xlink:href="#au"/><use transform="matrix(0.05,0,0,0.05,15.949999999999998,0)" xlink:href="#aC"/><use transform="matrix(0.05,0,0,0.05,25.950000000000003,0)" xlink:href="#av"/><use transform="matrix(0.05,0,0,0.05,30.950000000000003,0)" xlink:href="#az"/></g><path fill="#333" d="M115-194c53 0 69 39 70 98 0 66-23 100-70 100C84 3 66-7 56-30L54 0H23l1-261h32v101c10-23 28-34 59-34zm-8 174c40 0 45-34 45-75 0-40-5-75-45-74-42 0-51 32-51 76 0 43 10 73 51 73" id="aZ"/><g id="V"><use transform="matrix(0.05,0,0,0.05,0,0)" xlink:href="#aZ"/><use transform="matrix(0.05,0,0,0.05,10,0)" xlink:href="#au"/><use transform="matrix(0.05,0,0,0.05,20,0)" xlink:href="#ay"/><use transform="matrix(0.05,0,0,0.05,30,0)" xlink:href="#aB"/><use transform="matrix(0.05,0,0,0.05,35.95,0)" xlink:href="#aL"/><use transform="matrix(0.05,0,0,0.05,45.95,0)" xlink:href="#aL"/><use transform="matrix(0.05,0,0,0.05,55.95,0)" xlink:href="#aI"/><use transform="matrix(0.05,0,0,0.05,70.9,0)" xlink:href="#aw"/><use transform="matrix(0.05,0,0,0.05,80.9,0)" xlink:href="#aF"/><use transform="matrix(0.05,0,0,0.05,89.9,0)" xlink:href="#aL"/><use transform="matrix(0.05,0,0,0.05,99.9,0)" xlink:href="#aJ"/><use transform="matrix(0.05,0,0,0.05,109.9,0)" xlink:href="#aC"/><use transform="matrix(0.05,0,0,0.05,119.9,0)" xlink:href="#av"/><use transform="matrix(0.05,0,0,0.05,124.9,0)" xlink:href="#az"/></g><g id="W"><use transform="matrix(0.05,0,0,0.05,0,0)" xlink:href="#aZ"/><use transform="matrix(0.05,0,0,0.05,10,0)" xlink:href="#aG"/><use transform="matrix(0.05,0,0,0.05,20,0)" xlink:href="#av"/><use transform="matrix(0.05,0,0,0.05,25,0)" xlink:href="#aK"/><use transform="matrix(0.05,0,0,0.05,35,0)" xlink:href="#aw"/><use transform="matrix(0.05,0,0,0.05,45,0)" xlink:href="#aF"/><use transform="matrix(0.05,0,0,0.05,54,0)" xlink:href="#aL"/><use transform="matrix(0.05,0,0,0.05,64,0)" xlink:href="#aJ"/><use transform="matrix(0.05,0,0,0.05,74,0)" xlink:href="#aC"/><use transform="matrix(0.05,0,0,0.05,84,0)" xlink:href="#av"/><use transform="matrix(0.05,0,0,0.05,89,0)" xlink:href="#az"/></g><g id="X"><use transform="matrix(0.05,0,0,0.05,0,0)" xlink:href="#av"/><use transform="matrix(0.05,0,0,0.05,5,0)" xlink:href="#at"/><use transform="matrix(0.05,0,0,0.05,17.950000000000003,0)" xlink:href="#au"/><use transform="matrix(0.05,0,0,0.05,27.950000000000003,0)" xlink:href="#au"/><use transform="matrix(0.05,0,0,0.05,37.95,0)" xlink:href="#av"/><use transform="matrix(0.05,0,0,0.05,42.95,0)" xlink:href="#aw"/><use transform="matrix(0.05,0,0,0.05,52.95,0)" xlink:href="#ax"/><use transform="matrix(0.05,0,0,0.05,56.900000000000006,0)" xlink:href="#ay"/><use transform="matrix(0.05,0,0,0.05,66.9,0)" xlink:href="#az"/></g><g id="Y"><use transform="matrix(0.05,0,0,0.05,0,0)" xlink:href="#aG"/><use transform="matrix(0.05,0,0,0.05,10,0)" xlink:href="#aQ"/><use transform="matrix(0.05,0,0,0.05,19,0)" xlink:href="#aG"/><use transform="matrix(0.05,0,0,0.05,29,0)" xlink:href="#ax"/><use transform="matrix(0.05,0,0,0.05,32.95,0)" xlink:href="#aM"/><use transform="matrix(0.05,0,0,0.05,36.900000000000006,0)" xlink:href="#aG"/><use transform="matrix(0.05,0,0,0.05,46.900000000000006,0)" xlink:href="#aZ"/><use transform="matrix(0.05,0,0,0.05,56.900000000000006,0)" xlink:href="#aM"/><use transform="matrix(0.05,0,0,0.05,60.85,0)" xlink:href="#au"/><use transform="matrix(0.05,0,0,0.05,70.85000000000001,0)" xlink:href="#aw"/><use transform="matrix(0.05,0,0,0.05,80.85000000000001,0)" xlink:href="#aP"/><use transform="matrix(0.05,0,0,0.05,89.85000000000001,0)" xlink:href="#av"/><use transform="matrix(0.05,0,0,0.05,94.85000000000001,0)" xlink:href="#aG"/><use transform="matrix(0.05,0,0,0.05,104.85000000000001,0)" xlink:href="#aB"/><use transform="matrix(0.05,0,0,0.05,110.80000000000001,0)" xlink:href="#av"/><use transform="matrix(0.05,0,0,0.05,115.80000000000001,0)" xlink:href="#az"/></g><g id="Z"><use transform="matrix(0.05,0,0,0.05,0,0)" xlink:href="#aH"/><use transform="matrix(0.05,0,0,0.05,12.950000000000001,0)" xlink:href="#aG"/><use transform="matrix(0.05,0,0,0.05,22.950000000000003,0)" xlink:href="#av"/><use transform="matrix(0.05,0,0,0.05,27.950000000000003,0)" xlink:href="#au"/><use transform="matrix(0.05,0,0,0.05,37.95,0)" xlink:href="#as"/><use transform="matrix(0.05,0,0,0.05,48.25000000000001,0)" xlink:href="#ax"/><use transform="matrix(0.05,0,0,0.05,52.20000000000002,0)" xlink:href="#aI"/><use transform="matrix(0.05,0,0,0.05,67.15,0)" xlink:href="#au"/></g><g id="aa"><use transform="matrix(0.05,0,0,0.05,0,0)" xlink:href="#aG"/><use transform="matrix(0.05,0,0,0.05,10,0)" xlink:href="#aQ"/><use transform="matrix(0.05,0,0,0.05,19,0)" xlink:href="#aG"/><use transform="matrix(0.05,0,0,0.05,29,0)" xlink:href="#ax"/><use transform="matrix(0.05,0,0,0.05,32.95,0)" xlink:href="#aM"/><use transform="matrix(0.05,0,0,0.05,36.900000000000006,0)" xlink:href="#aG"/><use transform="matrix(0.05,0,0,0.05,46.900000000000006,0)" xlink:href="#aZ"/><use transform="matrix(0.05,0,0,0.05,56.900000000000006,0)" xlink:href="#aM"/><use transform="matrix(0.05,0,0,0.05,60.85,0)" xlink:href="#au"/><use transform="matrix(0.05,0,0,0.05,70.85000000000001,0)" xlink:href="#aw"/><use transform="matrix(0.05,0,0,0.05,80.85000000000001,0)" xlink:href="#au"/><use transform="matrix(0.05,0,0,0.05,90.85000000000001,0)" xlink:href="#aC"/><use transform="matrix(0.05,0,0,0.05,100.85000000000001,0)" xlink:href="#ay"/><use transform="matrix(0.05,0,0,0.05,110.85000000000001,0)" xlink:href="#az"/></g><g id="ab"><use transform="matrix(0.05,0,0,0.05,0,0)" xlink:href="#aK"/><use transform="matrix(0.05,0,0,0.05,10,0)" xlink:href="#aG"/><use transform="matrix(0.05,0,0,0.05,20,0)" xlink:href="#aM"/><use transform="matrix(0.05,0,0,0.05,23.95,0)" xlink:href="#aM"/><use transform="matrix(0.05,0,0,0.05,27.899999999999995,0)" xlink:href="#az"/></g><g id="ac"><use transform="matrix(0.05,0,0,0.05,0,0)" xlink:href="#aZ"/><use transform="matrix(0.05,0,0,0.05,10,0)" xlink:href="#au"/><use transform="matrix(0.05,0,0,0.05,20,0)" xlink:href="#ay"/><use transform="matrix(0.05,0,0,0.05,30,0)" xlink:href="#az"/></g><path fill="#333" d="M143 4C61 4 22-44 18-125c-5-107 100-154 193-111 17 8 29 25 37 43l-32 9c-13-25-37-40-76-40-61 0-88 39-88 99 0 61 29 100 91 101 35 0 62-11 79-27v-45h-74v-28h105v86C228-13 192 4 143 4" id="ba"/><g id="ad"><use transform="matrix(0.05,0,0,0.05,0,0)" xlink:href="#ba"/><use transform="matrix(0.05,0,0,0.05,14,0)" xlink:href="#au"/><use transform="matrix(0.05,0,0,0.05,24,0)" xlink:href="#aC"/><use transform="matrix(0.05,0,0,0.05,34,0)" xlink:href="#ay"/><use transform="matrix(0.05,0,0,0.05,44,0)" xlink:href="#au"/><use transform="matrix(0.05,0,0,0.05,54,0)" xlink:href="#aB"/><use transform="matrix(0.05,0,0,0.05,59.95,0)" xlink:href="#az"/></g><path fill="#333" d="M30 0v-248h187v28H63v79h144v27H63v87h162V0H30" id="bb"/><path fill="#333" d="M190 0L58-211 59 0H30v-248h39L202-35l-2-213h31V0h-41" id="bc"/><g id="ae"><use transform="matrix(0.05,0,0,0.05,0,0)" xlink:href="#bb"/><use transform="matrix(0.05,0,0,0.05,12,0)" xlink:href="#bc"/><use transform="matrix(0.05,0,0,0.05,24.950000000000003,0)" xlink:href="#aO"/><use transform="matrix(0.05,0,0,0.05,37.900000000000006,0)" xlink:href="#aT"/></g><g id="af"><use transform="matrix(0.05,0,0,0.05,0,0)" xlink:href="#aM"/><use transform="matrix(0.05,0,0,0.05,3.95,0)" xlink:href="#aL"/><use transform="matrix(0.05,0,0,0.05,13.949999999999998,0)" xlink:href="#aF"/><use transform="matrix(0.05,0,0,0.05,22.95,0)" xlink:href="#aG"/><use transform="matrix(0.05,0,0,0.05,32.95,0)" xlink:href="#av"/><use transform="matrix(0.05,0,0,0.05,37.95,0)" xlink:href="#ax"/><use transform="matrix(0.05,0,0,0.05,41.900000000000006,0)" xlink:href="#aL"/><use transform="matrix(0.05,0,0,0.05,51.900000000000006,0)" xlink:href="#aC"/><use transform="matrix(0.05,0,0,0.05,61.900000000000006,0)" xlink:href="#az"/></g><g id="ag"><use transform="matrix(0.05,0,0,0.05,0,0)" xlink:href="#aG"/><use transform="matrix(0.05,0,0,0.05,10,0)" xlink:href="#ay"/><use transform="matrix(0.05,0,0,0.05,20,0)" xlink:href="#ay"/><use transform="matrix(0.05,0,0,0.05,30,0)" xlink:href="#aB"/><use transform="matrix(0.05,0,0,0.05,35.95,0)" xlink:href="#au"/><use transform="matrix(0.05,0,0,0.05,45.95,0)" xlink:href="#aP"/><use transform="matrix(0.05,0,0,0.05,54.95,0)" xlink:href="#aP"/><use transform="matrix(0.05,0,0,0.05,63.95,0)" xlink:href="#az"/></g><g id="ah"><use transform="matrix(0.05,0,0,0.05,0,0)" xlink:href="#av"/><use transform="matrix(0.05,0,0,0.05,5,0)" xlink:href="#at"/><use transform="matrix(0.05,0,0,0.05,17.950000000000003,0)" xlink:href="#au"/><use transform="matrix(0.05,0,0,0.05,27.950000000000003,0)" xlink:href="#au"/><use transform="matrix(0.05,0,0,0.05,37.95,0)" xlink:href="#av"/><use transform="matrix(0.05,0,0,0.05,42.95,0)" xlink:href="#aw"/><use transform="matrix(0.05,0,0,0.05,52.95,0)" xlink:href="#aU"/><use transform="matrix(0.05,0,0,0.05,57.95,0)" xlink:href="#ay"/><use transform="matrix(0.05,0,0,0.05,67.95,0)" xlink:href="#az"/></g><g id="ai"><use transform="matrix(0.05,0,0,0.05,0,0)" xlink:href="#as"/><use transform="matrix(0.05,0,0,0.05,8.950000000000001,0)" xlink:href="#au"/><use transform="matrix(0.05,0,0,0.05,18.950000000000003,0)" xlink:href="#aI"/><use transform="matrix(0.05,0,0,0.05,33.900000000000006,0)" xlink:href="#aS"/><use transform="matrix(0.05,0,0,0.05,43.900000000000006,0)" xlink:href="#aL"/><use transform="matrix(0.05,0,0,0.05,53.900000000000006,0)" xlink:href="#aB"/><use transform="matrix(0.05,0,0,0.05,59.85,0)" xlink:href="#aG"/><use transform="matrix(0.05,0,0,0.05,69.85000000000001,0)" xlink:href="#aB"/><use transform="matrix(0.05,0,0,0.05,75.80000000000001,0)" xlink:href="#aR"/></g><path fill="#333" d="M101-251c68 0 85 55 85 127S166 4 100 4C33 4 14-52 14-124c0-73 17-127 87-127zm-1 229c47 0 54-49 54-102s-4-102-53-102c-51 0-55 48-55 102 0 53 5 102 54 102" id="bd"/><path fill="#333" d="M33 0v-38h34V0H33" id="be"/><path fill="#333" d="M80-196l47-18 7 23-49 13 32 44-20 13-27-46-27 45-21-12 33-44-49-13 8-23 47 19-2-53h23" id="bf"/><g id="aj"><use transform="matrix(0.05,0,0,0.05,0,0)" xlink:href="#bd"/><use transform="matrix(0.05,0,0,0.05,10,0)" xlink:href="#be"/><use transform="matrix(0.05,0,0,0.05,15,0)" xlink:href="#be"/><use transform="matrix(0.05,0,0,0.05,20,0)" xlink:href="#be"/><use transform="matrix(0.05,0,0,0.05,25,0)" xlink:href="#bf"/></g><path fill="#333" d="M27 0v-27h64v-190l-56 39v-29l58-41h29v221h61V0H27" id="bg"/><use transform="matrix(0.05,0,0,0.05,0,0)" xlink:href="#bg" id="ak"/><g id="al"><use transform="matrix(0.05,0,0,0.05,0,0)" xlink:href="#bd"/><use transform="matrix(0.05,0,0,0.05,10,0)" xlink:href="#be"/><use transform="matrix(0.05,0,0,0.05,15,0)" xlink:href="#be"/><use transform="matrix(0.05,0,0,0.05,20,0)" xlink:href="#bf"/></g><path fill="#333" d="M197 0v-115H63V0H30v-248h33v105h134v-105h34V0h-34" id="bh"/><g id="am"><use transform="matrix(0.05,0,0,0.05,0,0)" xlink:href="#bh"/><use transform="matrix(0.05,0,0,0.05,12.950000000000001,0)" xlink:href="#aG"/><use transform="matrix(0.05,0,0,0.05,22.950000000000003,0)" xlink:href="#aP"/><use transform="matrix(0.05,0,0,0.05,31.950000000000003,0)" xlink:href="#aK"/><use transform="matrix(0.05,0,0,0.05,41.95,0)" xlink:href="#av"/><use transform="matrix(0.05,0,0,0.05,46.95,0)" xlink:href="#aG"/><use transform="matrix(0.05,0,0,0.05,56.95,0)" xlink:href="#aD"/></g><g id="an"><use transform="matrix(0.05,0,0,0.05,0,0)" xlink:href="#av"/><use transform="matrix(0.05,0,0,0.05,5,0)" xlink:href="#at"/><use transform="matrix(0.05,0,0,0.05,17.950000000000003,0)" xlink:href="#au"/><use transform="matrix(0.05,0,0,0.05,27.950000000000003,0)" xlink:href="#au"/><use transform="matrix(0.05,0,0,0.05,37.95,0)" xlink:href="#av"/><use transform="matrix(0.05,0,0,0.05,42.95,0)" xlink:href="#aw"/><use transform="matrix(0.05,0,0,0.05,52.95,0)" xlink:href="#ax"/><use transform="matrix(0.05,0,0,0.05,56.900000000000006,0)" xlink:href="#ay"/><use transform="matrix(0.05,0,0,0.05,66.9,0)" xlink:href="#az"/></g><g id="ao"><use transform="matrix(0.05,0,0,0.05,0,0)" xlink:href="#aA"/><use transform="matrix(0.05,0,0,0.05,12,0)" xlink:href="#av"/><use transform="matrix(0.05,0,0,0.05,17,0)" xlink:href="#aB"/><use transform="matrix(0.05,0,0,0.05,22.95,0)" xlink:href="#ax"/><use transform="matrix(0.05,0,0,0.05,26.899999999999995,0)" xlink:href="#aC"/><use transform="matrix(0.05,0,0,0.05,36.9,0)" xlink:href="#aD"/></g><g id="ap"><use transform="matrix(0.05,0,0,0.05,0,0)" xlink:href="#aK"/><use transform="matrix(0.05,0,0,0.05,10,0)" xlink:href="#aG"/><use transform="matrix(0.05,0,0,0.05,20,0)" xlink:href="#aP"/><use transform="matrix(0.05,0,0,0.05,29,0)" xlink:href="#aK"/><use transform="matrix(0.05,0,0,0.05,39,0)" xlink:href="#aw"/><use transform="matrix(0.05,0,0,0.05,49,0)" xlink:href="#av"/><use transform="matrix(0.05,0,0,0.05,54,0)" xlink:href="#aG"/><use transform="matrix(0.05,0,0,0.05,64,0)" xlink:href="#aD"/><use transform="matrix(0.05,0,0,0.05,74,0)" xlink:href="#az"/></g><g id="aq"><use transform="matrix(0.05,0,0,0.05,0,0)" xlink:href="#ax"/><use transform="matrix(0.05,0,0,0.05,3.95,0)" xlink:href="#ay"/><use transform="matrix(0.05,0,0,0.05,13.949999999999998,0)" xlink:href="#az"/></g><g id="ar"><use transform="matrix(0.05,0,0,0.05,0,0)" xlink:href="#ax"/><use transform="matrix(0.05,0,0,0.05,3.95,0)" xlink:href="#aC"/><use transform="matrix(0.05,0,0,0.05,13.949999999999998,0)" xlink:href="#av"/></g></defs></g></svg>